<?xml version="1.0" encoding="UTF-8" standalone="no"?>
<svg
   fill="none"
   viewBox="0 0 348 348"
   version="1.1"
   id="svg6"
   sodipodi:docname="Long Words.svg"
   inkscape:version="1.2.2 (732a01da63, 2022-12-09)"
   xmlns:inkscape="http://www.inkscape.org/namespaces/inkscape"
   xmlns:sodipodi="http://sodipodi.sourceforge.net/DTD/sodipodi-0.dtd"
   xmlns="http://www.w3.org/2000/svg"
   xmlns:svg="http://www.w3.org/2000/svg">
  <defs
     id="defs10" />
  <sodipodi:namedview
     id="namedview8"
     pagecolor="#ffffff"
     bordercolor="#000000"
     borderopacity="0.25"
     inkscape:showpageshadow="2"
     inkscape:pageopacity="0.0"
     inkscape:pagecheckerboard="0"
     inkscape:deskcolor="#d1d1d1"
     showgrid="true"
     inkscape:zoom="4.8103448"
     inkscape:cx="-3.6379929"
     inkscape:cy="236.57348"
     inkscape:window-width="1920"
     inkscape:window-height="1017"
     inkscape:window-x="-8"
     inkscape:window-y="-8"
     inkscape:window-maximized="1"
     inkscape:current-layer="svg6" />
  <rect
     width="336.91"
     height="337.67"
     x="5.08"
     y="5.78"
     stroke="#000"
     stroke-width="2"
     id="rect2" />
  <ellipse
     cx="298.29"
     cy="40.55"
     stroke="#000"
     stroke-width="2"
     rx="15.9"
     ry="15.51"
     id="ellipse4" />
  <path
     id="rect845"
     style="fill:#280b0b;stroke-width:0.997896"
     d="M 43.694878,47 H 228.69488 v 53 H 43.694878 Z" />
  <path
     id="rect923"
     style="fill:#000000;stroke-width:1.183"
     d="M 43.694878,155.10036 H 303.69488 v 53 H 43.694878 Z" />
  <path
     id="rect925"
     style="fill:#000000;stroke-width:0.954839"
     d="m 164.8454,126.81004 h 20 v 20 h -20 z" />
  <path
     style="fill:#000000"
     d="M 11.641577,256.53047 88.97491,256.1147"
     id="path1311" />
  <path
     id="rect2108"
     style="fill:#000000;stroke-width:0.954839"
     d="m 164.8454,215.40501 h 20 v 20 h -20 z" />
  <path
     id="rect6466"
     style="fill:#000000;stroke-width:0.954839"
     d="m 16,171.23331 h 20 v 20 H 16 Z" />
  <path
     id="rect6468"
     style="fill:#000000;stroke-width:0.954839"
     d="m 310.3656,171.23331 h 20 v 20 h -20 z" />
  <path
     id="rect6470"
     style="fill:#000000;stroke-width:0.997896"
     d="M 43.694878,263.20071 H 228.69488 v 53 H 43.694878 Z" />
  <path
     style="fill:none;stroke:#ffffff;stroke-opacity:1;stroke-width:3"
     d="m 167,142 8,-10 8,10"
     id="path20299" />
  <path
     style="fill:none;stroke:#ffffff;stroke-opacity:1;stroke-width:3"
     d="m 316.35126,173.48745 10,8 -10,8"
     id="path852" />
  <path
     style="fill:none;stroke:#ffffff;stroke-opacity:1;stroke-width:3"
     d="m 183,220.55914 -8,10 -8,-10"
     id="path854" />
  <path
     style="fill:none;stroke:#ffffff;stroke-opacity:1;stroke-width:3"
     d="m 30.738355,189.48745 -10,-8 10,-8"
     id="path856" />
  <path
     style="fill:none;stroke:#878787;stroke-width:4.00228;stroke-opacity:1"
     d="M 69.849463,99.979868 V 155.11234"
     id="path2440" />
  <path
     style="fill:none;stroke:#878787;stroke-width:4.00216;stroke-opacity:1"
     d="m 69.849463,208.08967 v 55.11911"
     id="path2505" />
  <path
     style="fill:#878787;stroke:none;stroke-opacity:1;fill-opacity:1"
     d="m 71.8,263.23477 10,-12 -12,5.6 -12,-5.6 10,12"
     id="path4756" />

   <path
     style="fill:none;stroke:#878787;stroke-width:4.00228;stroke-opacity:1"
     d="M 99.849463,99.979868 V 155.11234"
     id="path2440" />
  <path
     style="fill:none;stroke:#878787;stroke-width:4.00216;stroke-opacity:1"
     d="m 99.849463,208.08967 v 55.11911"
     id="path2505" />
  <path
     style="fill:#878787;stroke:none;stroke-opacity:1;fill-opacity:1"
     d="m 101.8,263.23477 10,-12 -12,5.6 -12,-5.6 10,12"
     id="path4756" />
</svg>
